:SAMPLES-PER-SECOND 30
:FULLY-SPECIFIED
:DEGREES
47
root  67.5967 38.6205 1.72749 -5.85364 -87.1754 4.09761
RightUpLeg  -20.2523 -6.07726 1.41078
RightLeg  5.64408 -14.4522 4.66069
RightFoot  1.17006 -0.187965 1.84858
RightToes  0.00048216 0.542163 -0.142577
Spine  11.3085 -2.7578 -1.61316
Spine1  12.6656 -4.77134 4.64487
HEad  2.90364 2.36786 -3.60099
LeftShoulder1  7.71816 -11.7129 -44.158
LeftArm  -11.181 10.2763 -34.139
LeftForeArm  40.0186 -13.9162 -4.16989
LeftHand  -0.25398 0.0180481 5.50724
RightShoulder  4.37602 7.8356 32.6492
RightArm  -1.70199 -20.3674 43.8431
RightForeArm  28.7424 14.3566 5.61451
RightHand  -0.0941422 -3.10578 -3.74267
LeftUpLeg  14.3371 6.58509 -1.22419
LeftLeg  8.80226 19.7027 -3.05565
LeftFoot  -21.7977 -0.329878 -5.03468
LeftToes  1.06247e-005 4.65855e-005 -8.185e-006
48
root  66.4138 38.5082 1.90137 15.483 -86.0788 -17.0682
RightUpLeg  -20.7677 -8.53535 3.57022
RightLeg  8.87635 -12.93 3.69855
RightFoot  3.25363 0.287594 -2.08352
RightToes  0.00048216 0.542163 -0.142577
Spine  11.1571 -3.21963 1.21028
Spine1  12.2642 -5.01982 4.65783
HEad  3.21814 1.87411 -3.78704
LeftShoulder1  7.79694 -11.8574 -44.1913
LeftArm  -9.54269 10.1973 -34.1054
LeftForeArm  37.9272 -16.9454 -3.76496
LeftHand  -0.25398 0.0180481 5.50724
RightShoulder  4.27725 7.5934 32.6015
RightArm  -3.73231 -18.8555 42.3224
RightForeArm  29.1805 13.5563 5.53576
RightHand  -0.108328 -2.98121 -4.30031
LeftUpLeg  15.4936 8.59482 0.891285
LeftLeg  10.2305 16.5852 -1.97998
LeftFoot  -21.9781 -0.414701 -5.85235
LeftToes  1.06247e-005 4.65855e-005 -8.185e-006
49
root  65.161 38.4207 2.06921 31.8227 -85.4257 -33.3875
RightUpLeg  -21.8553 -13.8189 7.10123
RightLeg  13.5901 -7.44894 1.91276
RightFoot  3.79719 0.665461 -4.83188
RightToes  0.00048216 0.542163 -0.142577
Spine  11.4072 -3.37441 4.47666
Spine1  11.375 -4.70095 4.24054
HEad  3.60301 1.61489 -4.04987
LeftShoulder1  7.88297 -11.9049 -44.5586
LeftArm  -8.53217 10.7562 -33.748
LeftForeArm  36.4633 -21.1967 -3.23318
LeftHand  -0.25398 0.0180481 5.50724
RightShoulder  4.26832 7.51974 32.7772
RightArm  -6.42541 -17.4182 40.4852
RightForeArm  26.8522 12.8875 5.36542
RightHand  -0.189044 -2.42837 -6.70216
LeftUpLeg  16.1959 13.6878 4.02332
LeftLeg  13.5381 10.4728 -0.116418
LeftFoot  -21.7655 -0.640646 -8.42701
LeftToes  1.06247e-005 4.65855e-005 -8.185e-006
50
root  63.8922 38.3768 2.18487 44.1233 -85.3353 -45.883
RightUpLeg  -22.4956 -18.2329 9.97908
RightLeg  17.9083 -1.87315 0.359094
RightFoot  2.10732 0.7313 -6.07477
RightToes  0.00048216 0.542163 -0.142577
Spine  11.7168 -3.19525 7.09995
Spine1  11.0047 -4.01193 3.80897
HEad  3.97056 1.39885 -4.14983
LeftShoulder1  7.93438 -11.8982 -44.8825
LeftArm  -9.51104 11.4768 -33.2088
LeftForeArm  36.9452 -25.9848 -3.56831
LeftHand  -0.25398 0.0180481 5.50724
RightShoulder  4.29827 7.56192 32.9007
RightArm  -9.1235 -15.6386 39.0214
RightForeArm  21.8063 12.3159 5.27776
RightHand  -0.409558 -1.02484 -10.6562
LeftUpLeg  15.8764 19.1695 7.02204
LeftLeg  19.189 3.69789 1.7953
LeftFoot  -19.9382 -0.871904 -13.3722
LeftToes  1.06247e-005 4.65855e-005 -8.185e-006
51
root  62.6549 38.3841 2.21852 49.2713 -85.2085 -51.1633
RightUpLeg  -21.9709 -19.3101 10.5897
RightLeg  20.897 -0.432484 -0.178669
RightFoot  -0.628285 0.638353 -6.84028
RightToes  0.00048216 0.542163 -0.142577
Spine  11.7447 -2.96126 8.76119
Spine1  11.1003 -3.40084 3.74298
HEad  4.65264 0.811303 -3.82391
LeftShoulder1  7.88155 -11.8594 -44.6875
LeftArm  -10.3653 12.0354 -32.8805
LeftForeArm  36.9697 -30.0329 -4.50361
LeftHand  -0.25398 0.0180481 5.50724
RightShoulder  4.24744 7.49268 32.6819
RightArm  -10.8941 -13.7221 38.4897
RightForeArm  15.6099 12.4159 5.31439
RightHand  -0.762071 0.778251 -14.4469
LeftUpLeg  12.3933 16.9506 7.40869
LeftLeg  28.5626 4.88111 3.30121
LeftFoot  -14.0954 -0.33332 -17.1106
LeftToes  1.06247e-005 4.65855e-005 -8.185e-006
52
root  61.4785 38.4209 2.19742 47.7395 -84.618 -49.5611
RightUpLeg  -20.9068 -20.0512 10.5278
RightLeg  22.739 -0.439299 -0.185951
RightFoot  -3.10397 0.500738 -7.21498
RightToes  0.00048216 0.542163 -0.142577
Spine  11.6003 -2.8369 10.1969
Spine1  10.953 -2.92681 3.73717
HEad  5.73602 -0.239155 -3.16876
LeftShoulder1  7.72789 -11.7864 -43.9934
LeftArm  -9.97363 12.3061 -32.9077
LeftForeArm  35.6764 -32.5794 -5.16501
LeftHand  -0.25398 0.0180481 5.50724
RightShoulder  4.0774 7.156 32.3063
RightArm  -10.8521 -12.056 38.5798
RightForeArm  9.75879 13.9072 5.39707
RightHand  -1.06029 2.06685 -16.6837
LeftUpLeg  6.20962 13.9051 7.26779
LeftLeg  40.2366 6.18656 5.95714
LeftFoot  -3.55642 0.999605 -15.1716
LeftToes  1.06247e-005 4.65855e-005 -8.185e-006
53
root  60.3994 38.3872 2.17389 46.7052 -83.6039 -48.5862
RightUpLeg  -19.8252 -20.7224 10.6078
RightLeg  24.5981 -0.716433 -0.163029
RightFoot  -5.47644 0.311485 -6.76277
RightToes  0.00048216 0.542163 -0.142577
Spine  11.743 -2.82685 12.2008
Spine1  10.6167 -2.37779 3.54845
HEad  6.62263 -1.51431 -2.56641
LeftShoulder1  7.57527 -11.7023 -43.329
LeftArm  -9.68841 12.2971 -33.0935
LeftForeArm  34.8521 -33.8782 -5.52832
LeftHand  -0.25398 0.0180481 5.50724
RightShoulder  3.90061 6.73334 32.1584
RightArm  -8.64261 -10.5603 38.5087
RightForeArm  5.10726 16.9133 5.25393
RightHand  -1.13787 2.43402 -17.0336
LeftUpLeg  -0.960905 10.3194 7.12607
LeftLeg  51.45 5.47348 7.70115
LeftFoot  6.03114 1.38405 -9.16752
LeftToes  1.06247e-005 4.65855e-005 -8.185e-006
54
root  59.3095 38.4134 2.15844 45.4329 -83.0719 -47.8439
RightUpLeg  -17.7075 -20.5107 9.95598
RightLeg  25.7671 -1.39053 -0.190418
RightFoot  -7.81783 0.129159 -5.91838
RightToes  0.00048216 0.542163 -0.142577
Spine  12.1827 -2.72043 13.5935
Spine1  10.5131 -1.78201 3.35566
HEad  6.87559 -2.56224 -2.33459
LeftShoulder1  7.51063 -11.6513 -43.09
LeftArm  -10.1714 12.2693 -33.2064
LeftForeArm  34.9071 -34.4554 -5.66972
LeftHand  -0.25398 0.0180481 5.50724
RightShoulder  3.85654 6.58946 32.2632
RightArm  -5.68528 -8.99532 37.9759
RightForeArm  2.64086 20.8076 4.88801
RightHand  -1.03419 2.09841 -16.1694
LeftUpLeg  -6.99684 7.03103 6.74419
LeftLeg  59.8739 3.58132 7.1995
LeftFoot  8.84409 0.861084 -5.04106
LeftToes  1.06247e-005 4.65855e-005 -8.185e-006
55
root  58.1176 38.6188 2.12461 40.3397 -83.4096 -43.4828
RightUpLeg  -14.2032 -19.3039 8.06891
RightLeg  25.2863 -2.72876 -0.0309535
RightFoot  -9.6491 0.0134447 -5.34987
RightToes  0.00048216 0.542163 -0.142577
Spine  12.4992 -2.41635 13.3771
Spine1  10.5434 -1.31498 3.25734
HEad  6.87021 -3.18144 -2.36913
LeftShoulder1  7.51131 -11.6502 -43.0973
LeftArm  -10.8196 12.607 -33.1958
LeftForeArm  34.9358 -34.2991 -5.62937
LeftHand  -0.25398 0.0180481 5.50724
RightShoulder  3.94115 6.78815 32.3492
RightArm  -4.6654 -7.47291 37.4203
RightForeArm  3.42725 24.6772 5.04684
RightHand  -0.918717 1.60013 -15.3917
LeftUpLeg  -11.6649 4.30376 5.72164
LeftLeg  64.676 2.3849 6.18469
LeftFoot  6.38286 0.600712 -4.12778
LeftToes  1.06247e-005 4.65855e-005 -8.185e-006
56
root  56.8897 38.864 2.07741 33.2876 -84.0046 -36.8906
RightUpLeg  -10.5906 -17.438 5.88198
RightLeg  24.0687 -4.54404 0.46783
RightFoot  -10.8997 -0.054706 -4.88848
RightToes  0.00048216 0.542163 -0.142577
Spine  12.4761 -2.02691 12.6962
Spine1  10.3465 -0.869975 2.92616
HEad  7.14543 -3.47818 -2.41269
LeftShoulder1  7.50748 -11.672 -43.0085
LeftArm  -10.8849 13.4179 -33.1284
LeftForeArm  34.5747 -33.2793 -5.39763
LeftHand  -0.25398 0.0180481 5.50724
RightShoulder  4.01636 7.01101 32.2532
RightArm  -5.34126 -6.2208 37.4506
RightForeArm  5.57931 28.0364 5.76038
RightHand  -0.917425 1.47649 -15.6205
LeftUpLeg  -15.7841 1.92261 4.53979
LeftLeg  65.9934 2.13518 5.95453
LeftFoot  3.38875 0.545276 -4.36727
LeftToes  1.06247e-005 4.65855e-005 -8.185e-006
